<?xml version="1.0" encoding="utf-8"?>
<!-- Generator: Adobe Illustrator 26.0.2, SVG Export Plug-In . SVG Version: 6.00 Build 0)  -->
<svg version="1.1" id="Layer_1" xmlns="http://www.w3.org/2000/svg" xmlns:xlink="http://www.w3.org/1999/xlink" x="0px" y="0px"
	 viewBox="0 0 1006.3 283.46" style="enable-background:new 0 0 1006.3 283.46;" xml:space="preserve">
<style type="text/css">
	.st0{fill:#FFFFFF;}
	.st1{fill:#FAB316;}
</style>
<g>
	<g>
		<path class="st0" d="M583.97,108.44c-5.13-4.56-11.72-7.29-19.59-7.29c-20.04,0-36.29,17.13-36.29,38.26s16.25,38.26,36.29,38.26
			c7.87,0,14.46-2.61,19.59-7.02v6.31h22.26v-74.72h-22.26V108.44z M567.87,158.69c-10.1,0-18.28-8.63-18.28-19.28
			s8.19-19.28,18.28-19.28s16.1,8.83,16.1,19.47C583.97,150.26,577.97,158.69,567.87,158.69z"/>
		<polygon class="st0" points="709.58,147.15 692.86,102.26 692.47,102.26 673.19,102.26 672.79,102.26 656.39,146.32 640.8,102.26 
			618.54,102.26 644.97,176.98 667.23,176.98 682.83,130.79 698.43,176.98 699.03,176.98 720.68,176.98 721.28,176.98 
			747.71,102.26 725.46,102.26 		"/>
		<path class="st0" d="M803.02,101.46c-11.13,0-19.06,8.95-22.32,13.42V75.76h-22.26v101.21h22.26v-44.34
			c4.39-5.4,11.64-12.76,17.29-12.76c7.95,0,11.33,5.56,11.33,13.38v43.72h22.26v-29.94v-13.78c0-1.41,0-2.93,0-4.64
			C831.57,111.93,817.86,101.46,803.02,101.46z"/>
		<path class="st0" d="M899.76,108.44c-5.13-4.56-11.72-7.29-19.59-7.29c-20.04,0-36.29,17.13-36.29,38.26s16.25,38.26,36.29,38.26
			c7.87,0,14.46-2.61,19.59-7.02v6.31h22.26v-74.72h-22.26V108.44z M883.66,158.69c-10.1,0-18.28-8.63-18.28-19.28
			s8.19-19.28,18.28-19.28c10.1,0,16.1,8.83,16.1,19.47C899.76,150.26,893.76,158.69,883.66,158.69z"/>
		<path class="st0" d="M493.35,108.44c-5.13-4.56-11.72-7.29-19.59-7.29c-20.04,0-36.29,17.13-36.29,38.26s16.25,38.26,36.29,38.26
			c7.87,0,14.46-2.61,19.59-7.02v6.31c0,12.32-23.52,12.06-36.37,7.55v18.28c18.41,6.89,58.62,3.84,58.62-25.83v-10.07v-64.65
			h-22.26V108.44z M477.25,158.69c-10.1,0-18.28-8.63-18.28-19.28s8.19-19.28,18.28-19.28c10.1,0,16.1,8.83,16.1,19.47
			C493.35,150.26,487.35,158.69,477.25,158.69z"/>
		<rect x="402.73" y="102.26" class="st0" width="22.26" height="74.72"/>
		<rect x="402.73" y="75.23" class="st0" width="22.26" height="19.87"/>
		<path class="st0" d="M966.53,151.97v-31.03h15.08v-18.68h-15.08V84.77h-22.26v17.49h-10.76v18.68h10.76v38.55
			c0,8.41,8.22,18.19,19.85,18.19c11.62,0,18.58-2.75,18.58-2.75v-18.58C974.85,159.12,966.53,157.53,966.53,151.97z"/>
		<path class="st0" d="M387.83,122.66h-7.95h-5.27H345.9v19.08h22.84c-3.87,8.01-11.09,15.1-22.84,15.1
			c-16.57,0-30.01-13.43-30.01-30.01s13.43-30.01,30.01-30.01c7.15,0,13.52,2.51,18.46,6.68l14.68-15.73
			c-8.18-7.57-19.6-12.21-35.52-12.21c-28.32,0-51.27,22.95-51.27,51.27s22.95,51.27,51.27,51.27s45.51-18.28,45.51-51.27
			c0-1.43,0.01-2.82-0.01-4.17H387.83z"/>
	</g>
	<g>
		<path class="st0" d="M583.97,108.44c-5.13-4.56-11.72-7.29-19.59-7.29c-20.04,0-36.29,17.13-36.29,38.26s16.25,38.26,36.29,38.26
			c7.87,0,14.46-2.61,19.59-7.02v6.31h22.26v-74.72h-22.26V108.44z M567.87,158.69c-10.1,0-18.28-8.63-18.28-19.28
			s8.19-19.28,18.28-19.28s16.1,8.83,16.1,19.47C583.97,150.26,577.97,158.69,567.87,158.69z"/>
		<polygon class="st0" points="709.58,147.15 692.86,102.26 692.47,102.26 673.19,102.26 672.79,102.26 656.39,146.32 640.8,102.26 
			618.54,102.26 644.97,176.98 667.23,176.98 682.83,130.79 698.43,176.98 699.03,176.98 720.68,176.98 721.28,176.98 
			747.71,102.26 725.46,102.26 		"/>
		<path class="st0" d="M803.02,101.46c-11.13,0-19.06,8.95-22.32,13.42V75.76h-22.26v101.21h22.26v-44.34
			c4.39-5.4,11.64-12.76,17.29-12.76c7.95,0,11.33,5.56,11.33,13.38v43.72h22.26v-29.94v-13.78c0-1.41,0-2.93,0-4.64
			C831.57,111.93,817.86,101.46,803.02,101.46z"/>
		<path class="st0" d="M899.76,108.44c-5.13-4.56-11.72-7.29-19.59-7.29c-20.04,0-36.29,17.13-36.29,38.26s16.25,38.26,36.29,38.26
			c7.87,0,14.46-2.61,19.59-7.02v6.31h22.26v-74.72h-22.26V108.44z M883.66,158.69c-10.1,0-18.28-8.63-18.28-19.28
			s8.19-19.28,18.28-19.28c10.1,0,16.1,8.83,16.1,19.47C899.76,150.26,893.76,158.69,883.66,158.69z"/>
		<path class="st0" d="M493.35,108.44c-5.13-4.56-11.72-7.29-19.59-7.29c-20.04,0-36.29,17.13-36.29,38.26s16.25,38.26,36.29,38.26
			c7.87,0,14.46-2.61,19.59-7.02v6.31c0,12.32-23.52,12.06-36.37,7.55v18.28c18.41,6.89,58.62,3.84,58.62-25.83v-10.07v-64.65
			h-22.26V108.44z M477.25,158.69c-10.1,0-18.28-8.63-18.28-19.28s8.19-19.28,18.28-19.28c10.1,0,16.1,8.83,16.1,19.47
			C493.35,150.26,487.35,158.69,477.25,158.69z"/>
		<rect x="402.73" y="102.26" class="st0" width="22.26" height="74.72"/>
		<rect x="402.73" y="75.23" class="st0" width="22.26" height="19.87"/>
		<path class="st0" d="M966.53,151.97v-31.03h15.08v-18.68h-15.08V84.77h-22.26v17.49h-10.76v18.68h10.76v38.55
			c0,8.41,8.22,18.19,19.85,18.19c11.62,0,18.58-2.75,18.58-2.75v-18.58C974.85,159.12,966.53,157.53,966.53,151.97z"/>
		<path class="st0" d="M387.83,122.66h-7.95h-5.27H345.9v19.08h22.84c-3.87,8.01-11.09,15.1-22.84,15.1
			c-16.57,0-30.01-13.43-30.01-30.01s13.43-30.01,30.01-30.01c7.15,0,13.52,2.51,18.46,6.68l14.68-15.73
			c-8.18-7.57-19.6-12.21-35.52-12.21c-28.32,0-51.27,22.95-51.27,51.27s22.95,51.27,51.27,51.27s45.51-18.28,45.51-51.27
			c0-1.43,0.01-2.82-0.01-4.17H387.83z"/>
	</g>
	<path class="st1" d="M165.6,104.15l0.58-12.46c0.12-2.66-1.15-5.18-3.35-6.67L110.34,49.5l14.81-6.72
		c2.83-1.28,6.13-0.98,8.68,0.79l34.76,24.2l0.32-17.88L136.2,25.86c-3.52-2.59-8.2-2.98-12.1-1.01L80.04,47.11l66.9,45.84
		c2.12,1.45,3.36,3.87,3.32,6.43l-0.06,3.58c-5.01,2.44-8.52,7.53-8.62,13.48c-0.15,8.45,6.58,15.42,15.03,15.57
		c8.45,0.15,15.42-6.58,15.57-15.03C172.27,111.69,169.65,106.97,165.6,104.15z M156.73,125.16c-4.66-0.08-8.38-3.93-8.29-8.6
		c0.08-4.66,3.93-8.38,8.6-8.29c4.66,0.08,8.38,3.93,8.29,8.6C165.24,121.53,161.39,125.24,156.73,125.16z"/>
	<path class="st1" d="M114.38,91.54l-10.7-6.41c-2.28-1.37-5.11-1.45-7.46-0.22L40.07,114.3l1.1-16.23c0.21-3.1,2.04-5.86,4.81-7.26
		l37.78-19.14l-15.59-8.76L31.5,80.33c-3.95,1.88-6.51,5.81-6.62,10.18l-1.28,49.33l72.07-37.19c2.28-1.18,5-1.13,7.24,0.13
		l3.13,1.76c-0.23,5.57,2.59,11.06,7.79,13.98c7.37,4.14,16.7,1.52,20.83-5.85c4.14-7.37,1.52-16.7-5.85-20.83
		C124.18,89.24,118.78,89.31,114.38,91.54z M128.67,109.31c-2.28,4.07-7.43,5.51-11.5,3.23c-4.07-2.28-5.51-7.43-3.23-11.5
		c2.28-4.07,7.43-5.51,11.5-3.23C129.51,100.1,130.96,105.25,128.67,109.31z"/>
	<path class="st1" d="M149.03,189.92l10.86,6.12c2.32,1.31,5.14,1.31,7.47,0.02l55.34-30.87l-0.66,16.25
		c-0.13,3.1-1.88,5.91-4.61,7.39l-37.26,20.14l15.82,8.34l36.18-18.38c3.9-1.98,6.35-5.98,6.35-10.35l-0.03-49.35l-71.05,39.09
		c-2.25,1.24-4.97,1.26-7.24,0.07l-3.17-1.67c0.08-5.57-2.89-10.99-8.16-13.77c-7.48-3.94-16.73-1.07-20.67,6.4
		c-3.94,7.48-1.07,16.73,6.4,20.67C139.3,192.48,144.69,192.27,149.03,189.92z M134.27,172.53c2.17-4.13,7.28-5.71,11.41-3.53
		s5.71,7.28,3.53,11.41c-2.17,4.13-7.28,5.71-11.41,3.53C133.67,181.77,132.09,176.66,134.27,172.53z"/>
	<path class="st1" d="M182.14,149.86l10.54-6.66c2.25-1.42,3.59-3.91,3.55-6.57l-0.95-63.36l13.99,8.28
		c2.67,1.58,4.32,4.46,4.32,7.56l0.08,42.35l14.84-9.98l0.96-40.57c0.1-4.37-2.26-8.43-6.11-10.5l-43.47-23.36l0.75,81.09
		c0.02,2.57-1.24,4.97-3.37,6.4l-2.97,2c-4.87-2.71-11.05-2.67-15.99,0.66c-7.01,4.72-8.87,14.22-4.16,21.24
		c4.72,7.01,14.22,8.87,21.24,4.16C179.79,159.64,182.15,154.8,182.14,149.86z M159.83,154.62c-2.6-3.87-1.58-9.12,2.29-11.72
		c3.87-2.6,9.12-1.58,11.72,2.29c2.6,3.87,1.58,9.12-2.29,11.72S162.44,158.49,159.83,154.62z"/>
	<path class="st1" d="M79.26,132.78l-10.75,6.33c-2.29,1.35-3.71,3.79-3.76,6.45l-1.05,63.36l-13.72-8.72
		c-2.62-1.67-4.17-4.59-4.08-7.7l1.27-42.33l-15.15,9.51l-2.24,40.52c-0.24,4.36,1.99,8.49,5.77,10.68l42.71,24.72l1.82-81.08
		c0.06-2.57,1.4-4.93,3.57-6.29l3.04-1.91c4.78,2.86,10.96,3.02,16-0.15c7.16-4.49,9.32-13.94,4.83-21.09
		c-4.49-7.16-13.94-9.32-21.09-4.83C81.93,123.08,79.41,127.85,79.26,132.78z M101.71,128.73c2.48,3.95,1.29,9.16-2.66,11.64
		c-3.95,2.48-9.16,1.29-11.64-2.66s-1.29-9.16,2.66-11.64S99.23,124.78,101.71,128.73z"/>
	<path class="st1" d="M97.23,181.14l0.03,12.47c0.01,2.66,1.39,5.12,3.66,6.51l54.13,32.95l-14.47,7.43
		c-2.76,1.42-6.07,1.28-8.7-0.37L96,217.62l0.54,17.88l33.83,22.43c3.64,2.42,8.33,2.58,12.14,0.42L185.43,234l-69.03-42.56
		c-2.18-1.35-3.55-3.7-3.62-6.27l-0.11-3.58c4.89-2.68,8.14-7.93,7.96-13.88c-0.26-8.45-7.31-15.09-15.76-14.83
		s-15.09,7.31-14.83,15.76C90.21,173.93,93.05,178.52,97.23,181.14z M105.08,159.73c4.66-0.14,8.56,3.52,8.7,8.19
		c0.14,4.66-3.52,8.56-8.19,8.7c-4.66,0.14-8.56-3.52-8.7-8.19C96.76,163.76,100.42,159.87,105.08,159.73z"/>
</g>
</svg>
