<svg id="Layer_1" data-name="Layer 1" xmlns="http://www.w3.org/2000/svg" viewBox="0 0 1245.66 508.218"><defs><style>.cls-1{fill:#ffb400;}.cls-2{font-size:207px;fill:#e6e6e6;font-family:Impact;}</style></defs><path class="cls-1" d="M390.787,311l1.23-26.639a16.326,16.326,0,0,0-7.158-14.272L272.62,194.138l31.664-14.38a18.842,18.842,0,0,1,18.554,1.692l74.327,51.75.684-38.241L327.9,143.573a24.816,24.816,0,0,0-25.881-2.15l-94.2,47.59,143.07,98.026a16.325,16.325,0,0,1,7.1,13.758l-.137,7.665A32.7,32.7,0,1,0,390.787,311Zm-18.979,44.937A18.061,18.061,0,1,1,390.189,338.2,18.061,18.061,0,0,1,371.808,355.936Z" transform="translate(-87.118 -138.757)"/><path class="cls-1" d="M281.243,284.035l-22.874-13.707a16.323,16.323,0,0,0-15.96-.461l-120.07,62.842,2.343-34.7a18.839,18.839,0,0,1,10.283-15.536l80.793-40.926-33.35-18.725-78.4,37.242a24.814,24.814,0,0,0-14.159,21.771l-2.734,105.5L241.239,307.81a16.324,16.324,0,0,1,15.477.272l6.685,3.754a32.7,32.7,0,1,0,17.842-27.8Zm30.577,38.009a18.062,18.062,0,1,1-6.907-24.591A18.062,18.062,0,0,1,311.82,322.044Z" transform="translate(-87.118 -138.757)"/><path class="cls-1" d="M355.352,494.422l23.231,13.093a16.324,16.324,0,0,0,15.967.036l118.356-66.015-1.42,34.748a18.839,18.839,0,0,1-9.865,15.8L421.945,535.15l33.837,17.83,77.378-39.315a24.812,24.812,0,0,0,13.574-22.14l-.074-105.537-151.95,83.6a16.326,16.326,0,0,1-15.479.139l-6.782-3.574a32.7,32.7,0,1,0-17.1,28.266ZM323.776,457.24a18.061,18.061,0,1,1,7.558,24.4A18.06,18.06,0,0,1,323.776,457.24Z" transform="translate(-87.118 -138.757)"/><path class="cls-1" d="M426.162,408.755,448.7,394.5a16.325,16.325,0,0,0,7.6-14.043l-2.042-135.5,29.925,17.716a18.842,18.842,0,0,1,9.242,16.178l.16,90.568,31.736-21.346,2.051-86.77a24.814,24.814,0,0,0-13.063-22.445l-92.969-49.949,1.609,173.423a16.323,16.323,0,0,1-7.213,13.7l-6.362,4.279a32.7,32.7,0,1,0,16.789,28.45ZM378.456,418.94a18.061,18.061,0,1,1,25.066,4.907A18.061,18.061,0,0,1,378.456,418.94Z" transform="translate(-87.118 -138.757)"/><path class="cls-1" d="M206.153,372.232l-22.979,13.53a16.326,16.326,0,0,0-8.039,13.8l-2.252,135.5L143.534,516.4a18.838,18.838,0,0,1-8.724-16.462l2.708-90.527-32.4,20.33-4.8,86.66a24.818,24.818,0,0,0,12.346,22.849l91.34,52.868L207.9,418.735a16.323,16.323,0,0,1,7.643-13.461l6.494-4.075a32.7,32.7,0,1,0-15.879-28.967Zm48-8.669a18.061,18.061,0,1,1-24.9-5.7A18.06,18.06,0,0,1,254.157,363.563Z" transform="translate(-87.118 -138.757)"/><path class="cls-1" d="M244.574,475.653l.054,26.667a16.325,16.325,0,0,0,7.837,13.911L368.23,586.69l-30.936,15.887a18.838,18.838,0,0,1-18.614-.8l-76.732-48.111,1.158,38.229,72.34,47.959a24.812,24.812,0,0,0,25.954.9l91.8-52.069L285.575,497.665a16.328,16.328,0,0,1-7.749-13.4l-.232-7.663a32.7,32.7,0,1,0-33.02-.948Zm16.794-45.8a18.061,18.061,0,1,1-17.506,18.6A18.062,18.062,0,0,1,261.368,429.854Z" transform="translate(-87.118 -138.757)"/><text class="cls-2" transform="translate(535.209 222.791)">Samyar <tspan x="0" y="217">Projects</tspan></text></svg>